<?xml version="1.0" encoding="utf-8"?>
<!-- Generator: Adobe Illustrator 24.2.3, SVG Export Plug-In . SVG Version: 6.00 Build 0)  -->
<svg version="1.1" id="Layer_1" xmlns="http://www.w3.org/2000/svg" xmlns:xlink="http://www.w3.org/1999/xlink" x="0px" y="0px"
	 viewBox="0 0 72.4 44" style="enable-background:new 0 0 72.4 44;" xml:space="preserve">
<style type="text/css">
	.st0{fill:#CCCCCC;stroke:#4D4D4D;stroke-miterlimit:10;}
</style>
<path class="st0" d="M1.3,6.1l21.8,30.6l0,0l1.7,1.4h2l0.1,0.2c0.4,0.7,0.4,1.6,0,2.3l-0.2,0.3l-2,0.3l-3.1,2.3l-21-32.5l0.4-5.3
	l45.5-5.1L71.4,30l-48.3,6.7l-1,6.6L71.4,30"/>
<polyline class="st0" points="0.9,5.6 23.1,36.7 71.4,30 "/>
<path class="st0" d="M23.1,36.7l-1,6.3l2.6-1.9l2-0.3l0.2-0.3c0.5-0.6,0.5-1.5,0.1-2.1L26.8,38l-2,0.1L23.1,36.7z"/>
</svg>
