<?xml version="1.0" encoding="utf-8"?>
<!-- Generator: Adobe Illustrator 24.2.3, SVG Export Plug-In . SVG Version: 6.00 Build 0)  -->
<svg version="1.1" id="Layer_1" xmlns="http://www.w3.org/2000/svg" xmlns:xlink="http://www.w3.org/1999/xlink" x="0px" y="0px"
	 viewBox="0 0 201.2 153" style="enable-background:new 0 0 201.2 153;" xml:space="preserve">
<style type="text/css">
	.st0{fill:none;stroke:#4D4D4D;stroke-width:2;stroke-miterlimit:10;}
	.st1{fill:#CCCCCC;stroke:#4D4D4D;stroke-miterlimit:10;}
	.st2{fill:#666666;}
</style>
<polygon class="st0" points="24.1,63.3 13.3,63.3 0.6,143.5 200.6,143.5 186.1,63.3 177.1,63.3 177.1,127.4 24.1,127.4 "/>
<rect x="23.6" y="0.5" class="st1" width="65.2" height="126.4"/>
<rect x="56.2" y="57.5" class="st1" width="57" height="69.4"/>
<rect x="113.3" y="17.4" class="st1" width="64.3" height="109.5"/>
<rect x="40.6" y="9.9" class="st2" width="9" height="8.9"/>
<rect x="61.4" y="9.9" class="st2" width="9" height="8.9"/>
<rect x="40.6" y="27.6" class="st2" width="9" height="8.9"/>
<rect x="61.4" y="27.6" class="st2" width="9" height="8.9"/>
<rect x="40.6" y="44.6" class="st2" width="9" height="8.9"/>
<rect x="61.4" y="44.6" class="st2" width="9" height="8.9"/>
<rect x="40.6" y="62.4" class="st2" width="9" height="8.9"/>
<rect x="40.6" y="80.2" class="st2" width="9" height="8.9"/>
<rect x="130" y="27.6" class="st2" width="9.1" height="8.9"/>
<rect x="150.8" y="27.6" class="st2" width="9.1" height="8.9"/>
<rect x="130" y="45.5" class="st2" width="9.1" height="8.9"/>
<rect x="150.8" y="45.5" class="st2" width="9.1" height="8.9"/>
<rect x="130" y="62.4" class="st2" width="9.1" height="8.9"/>
<rect x="150.8" y="62.4" class="st2" width="9.1" height="8.9"/>
<rect x="130" y="80.2" class="st2" width="9.1" height="8.9"/>
<rect x="150.8" y="80.2" class="st2" width="9.1" height="8.9"/>
<rect x="70.3" y="68.6" class="st2" width="9.1" height="8.9"/>
<rect x="91.1" y="68.6" class="st2" width="9.1" height="8.9"/>
<rect x="70.3" y="86.4" class="st2" width="9.1" height="8.9"/>
<rect x="91.1" y="86.4" class="st2" width="9.1" height="8.9"/>
<rect x="79.3" y="103.3" class="st2" width="12.7" height="23.2"/>
<rect x="139" y="103.3" class="st2" width="12.7" height="23.2"/>
</svg>
