<?xml version="1.0" encoding="utf-8"?>
<!-- Generator: Adobe Illustrator 24.2.3, SVG Export Plug-In . SVG Version: 6.00 Build 0)  -->
<svg version="1.1" id="Layer_1" xmlns="http://www.w3.org/2000/svg" xmlns:xlink="http://www.w3.org/1999/xlink" x="0px" y="0px"
	 viewBox="0 0 55.5 49.1" style="enable-background:new 0 0 55.5 49.1;" xml:space="preserve">
<style type="text/css">
	.st0{fill:#cccccc;stroke:#4d4d4d;stroke-miterlimit:10;}
</style>
<path class="st0" d="M42.9,6.7"/>
<path class="st0" d="M42.9,6.7l11.5,4.9c0.5,0.2,0.7,0.8,0.5,1.2c0,0,0,0.1-0.1,0.1l-23,35.2c-0.3,0.4-0.8,0.5-1.3,0.3L0.9,30
	c-0.4-0.3-0.6-0.8-0.3-1.3c0-0.1,0.1-0.1,0.1-0.2l27-27.8c0.3-0.3,0.7-0.3,1-0.2l9.2,4"/>
<path class="st0" d="M31.2,5.3l14.7,7.1l0.4-0.6c0.3-0.5,0.3-1.2-0.2-1.5L43,7.4c-0.4-0.4-0.5-1-0.3-1.5l1-2.5
	c0.1-0.3,0.1-0.6,0-0.9l-0.3-0.7c-0.2-0.5-0.7-0.7-1.3-0.6l-1.2,0.3c-0.3,0.1-0.5,0.2-0.7,0.5l-1.7,2.5c-0.3,0.4-0.8,0.7-1.3,0.6
	l-4.6-0.7c-0.4,0-0.7,0.1-1,0.4L31.2,5.3z"/>
</svg>
