<svg id="Layer_1" data-name="Layer 1" xmlns="http://www.w3.org/2000/svg" viewBox="0 0 64.6 58.26"><defs><style>.cls-1{fill:#cccccc;stroke:#4d4d4d;stroke-miterlimit:10;}</style></defs><path class="cls-1" d="M44.41,68.93l4.88-10.49a4,4,0,0,1,1.26-1.52l43.39-31A.83.83,0,0,1,95,26L107.67,38a.81.81,0,0,1,.17.95l-5.52,11.2a.81.81,0,0,1-.25.3L57.59,82.86a.8.8,0,0,1-1.07-.11l-12-12.92A.81.81,0,0,1,44.41,68.93Z" transform="translate(-43.83 -25.25)"/><path class="cls-1" d="M49.72,57.51l12,13.62L57,83.28l4.43-11.42a2.59,2.59,0,0,1,.93-1.19l45.74-32.22" transform="translate(-43.83 -25.25)"/></svg>