<?xml version="1.0" encoding="utf-8"?>
<!-- Generator: Adobe Illustrator 24.2.3, SVG Export Plug-In . SVG Version: 6.00 Build 0)  -->
<svg version="1.1" id="Layer_1" xmlns="http://www.w3.org/2000/svg" xmlns:xlink="http://www.w3.org/1999/xlink" x="0px" y="0px"
	 viewBox="0 0 58.4 60" style="enable-background:new 0 0 58.4 60;" xml:space="preserve">
<style type="text/css">
	.st0{fill:#cccccc;stroke:#4d4d4d;stroke-miterlimit:10;}
</style>
<path id="Path_32" class="st0" d="M12.5,7.7l-1.2,0.9c-0.9,0.7-1.6,1.7-1.9,2.8l-6.5,22l-0.1,0.3l-2,22.7l9,0.4l1.6-8.3
	c0.3-0.7,0.5-1.5,0.5-2.3l1-19.8L12.3,58l16,0.5c0.7,0,1.4,0,2,0h16.4l-0.3-31.6l1,19.7c0,0.8,0.2,1.6,0.4,2.3l2.1,8.3l7.9-0.9
	l-1.8-22c0-0.2-0.1-0.4-0.1-0.6l-6.1-21.9c-0.4-1.3-1.2-2.4-2.4-3.1l-3.5-1.3c-0.2-0.1-6.4-0.6-6.4-0.8c0,0-0.6-5.4-1-5.4l-6.6-0.7
	c-0.5,0-1,0-1.6,0l-5.2,0.3c-0.5,0-1.8,5.6-1.8,5.6c0,0.2-7,0.7-7.2,0.7l0,0C13.6,7.1,13,7.4,12.5,7.7z"/>
<path class="st0" d="M23.2,0.8l2.2,1.7c0.5,0.4,1.1,0.7,1.8,0.9l1.5,0.3l0.6,16.7l1.1-16.8l2.1-0.3C33,3.2,33.6,3,34.1,2.7l2.5-1.5"
	/>
</svg>
