<svg id="Layer_1" data-name="Layer 1" xmlns="http://www.w3.org/2000/svg" viewBox="0 0 83.83 87.31"><defs><style>.cls-1{fill:#cccccc;stroke:#4d4d4d;stroke-miterlimit:10;}</style></defs><path class="cls-1" d="M39,44.23l.88,75.15L82.23,103l38.94,17.1.63-75.94a1.44,1.44,0,0,0-1.12-1.41L82.49,34.11,40.12,42.8A1.44,1.44,0,0,0,39,44.23Z" transform="translate(-38.47 -33.59)"/><path class="cls-1" d="M82.49,34.11,82.23,103l-1.7-20a1.45,1.45,0,0,0-1.83-1.28l-39.16,11" transform="translate(-38.47 -33.59)"/><path class="cls-1" d="M121.39,93.34,85.49,81.82a1.46,1.46,0,0,0-1.91,1.29L82.23,103" transform="translate(-38.47 -33.59)"/></svg>