<?xml version="1.0" encoding="utf-8"?>
<!-- Generator: Adobe Illustrator 24.2.3, SVG Export Plug-In . SVG Version: 6.00 Build 0)  -->
<svg version="1.1" id="Layer_1" xmlns="http://www.w3.org/2000/svg" xmlns:xlink="http://www.w3.org/1999/xlink" x="0px" y="0px"
	 viewBox="0 0 316 194" style="enable-background:new 0 0 316 194;" xml:space="preserve">
<style type="text/css">
	.st0{fill:none;stroke:#4D4D4D;stroke-width:4;stroke-miterlimit:10;}
	.st1{fill:#CCCCCC;stroke:#4D4D4D;stroke-width:2;stroke-miterlimit:10;}
	.st2{fill:none;stroke:#4D4D4D;stroke-width:2;stroke-miterlimit:10;}
	.st3{fill:#CCCCCC;stroke:#4D4D4D;stroke-miterlimit:10;}
</style>
<line class="st0" x1="0" y1="192" x2="316" y2="192"/>
<polygon class="st1" points="81,192 81,157 139,160 117,128 132,130 108,98 126,100 102,64 116,67 97,42 105,44 81,2 57,44 65,42 
	46,67 60,64 36,100 54,98 30,130 45,128 23,160 81,157 "/>
<line class="st2" x1="184" y1="157" x2="184" y2="192"/>
<line class="st2" x1="281" y1="157" x2="281" y2="192"/>
<line class="st2" x1="195" y1="113" x2="195" y2="157"/>
<line class="st2" x1="269" y1="113" x2="269" y2="157"/>
<rect x="184" y="131.3" class="st3" width="97" height="9.4"/>
<rect x="175" y="154.5" class="st3" width="115" height="5.1"/>
<rect x="184" y="112.6" class="st3" width="97" height="9.4"/>
</svg>
