<?xml version="1.0" encoding="utf-8"?>
<!-- Generator: Adobe Illustrator 24.2.3, SVG Export Plug-In . SVG Version: 6.00 Build 0)  -->
<svg version="1.1" id="Layer_1" xmlns="http://www.w3.org/2000/svg" xmlns:xlink="http://www.w3.org/1999/xlink" x="0px" y="0px"
	 viewBox="0 0 77.7 40.2" style="enable-background:new 0 0 77.7 40.2;" xml:space="preserve">
<style type="text/css">
	.st0{fill:#CCCCCC;stroke:#4D4D4D;stroke-miterlimit:10;}
</style>
<path class="st0" d="M0.7,33.8l-0.2,0.9c-0.1,0.5,0,1.1,0.2,1.6l0.8,1.6c0.3,0.6,0.8,1,1.4,1.2l0.8,0.3l0.1-0.8
	c0.1-0.5,0-0.9-0.2-1.3l-0.8-1.9C2.7,35,2.4,34.6,2,34.3l-0.8-0.6L73.1,0.6l0.6,0.5c1,0.9,1.8,2.1,2,3.5l0.2,1l-72,34.1l29.2-14.1
	l-0.2-1.1c-0.2-1.4-0.9-2.8-2-3.7l-0.4-0.4L73.3,0.6l0.6,0.5l1.2-0.5l0.2,0.2c0.9,0.8,1.5,1.9,1.8,3.2v0.2L76,4.7"/>
<path class="st0" d="M4.2,39.5l-0.4-0.9c0-0.6-0.1-1.2-0.4-1.7L3.1,36c-0.2-0.6-0.6-1.1-1.1-1.6l-0.8-0.7l29.3-13.3l0,0
	c1.8,1,2.9,2.8,2.9,4.8v0.5L4.2,39.5z"/>
</svg>
