<?xml version="1.0" encoding="utf-8"?>
<!-- Generator: Adobe Illustrator 24.2.3, SVG Export Plug-In . SVG Version: 6.00 Build 0)  -->
<svg version="1.1" id="Layer_1" xmlns="http://www.w3.org/2000/svg" xmlns:xlink="http://www.w3.org/1999/xlink" x="0px" y="0px"
	 viewBox="0 0 38.6 59.3" style="enable-background:new 0 0 38.6 59.3;" xml:space="preserve">
<style type="text/css">
	.st0{fill:#CCCCCC;stroke:#4D4D4D;stroke-miterlimit:10;}
</style>
<path class="st0" d="M20.7,4.8l-0.9-1.1c-1.3-1.6-3.2-2.7-5.3-3.1l0,0c-1.4-0.3-2.9-0.2-4.4,0.2L8.9,1.3C7,1.9,5.4,3.1,4.2,4.8
	L3.6,5.7c-1,1.5-1.7,3.2-1.8,5l-0.3,3.2c-0.5,5.4-0.2,10.9,1,16.3L4,37.5L1.1,56.2l8.1,0.4c1.6,0.1,3.1,0,4.7-0.1l1.7-0.2l5.1-23.1
	V4.8"/>
<path class="st0" d="M18.5,39.4L15.7,58l8.1,0.4c1.6,0.1,3.1,0,4.7-0.1l8.8-0.9L35.1,39l2.6-13.6c0.3-1.6,0.4-3.2,0.3-4.7l-0.4-7.8
	c-0.1-2.3-1-4.4-2.4-6.2l-0.9-1.1C33,4,31.1,2.9,29.1,2.5l0,0c-1.4-0.3-2.9-0.2-4.4,0.2l-1.3,0.4c-1.9,0.6-3.6,1.8-4.7,3.4l-0.6,0.9
	c-1,1.5-1.7,3.2-1.8,5L16,15.8c-0.5,5.4-0.2,10.9,1,16.3L18.5,39.4z"/>
<path class="st0" d="M26.6,36.4l-1.5-14.3c-0.1-1.2,0-2.5,0.3-3.7l0,0c0.3-1,1-1.9,2.1-2.1l1-0.3c0.5-0.2,1.1,0.1,1.4,0.5l7,10.6"/>
</svg>
