<?xml version="1.0" encoding="utf-8"?>
<!-- Generator: Adobe Illustrator 24.2.3, SVG Export Plug-In . SVG Version: 6.00 Build 0)  -->
<svg version="1.1" id="Layer_1" xmlns="http://www.w3.org/2000/svg" xmlns:xlink="http://www.w3.org/1999/xlink" x="0px" y="0px"
	 viewBox="0 0 166 199" style="enable-background:new 0 0 166 199;" xml:space="preserve">
<style type="text/css">
	.st0{fill:#CCCCCC;stroke:#4D4D4D;stroke-width:2;stroke-miterlimit:10;}
	.st1{fill:none;stroke:#4D4D4D;stroke-width:4;stroke-miterlimit:10;}
</style>
<path class="st0" d="M81,128l-19.6,10.8c-7.4,4-15.9,5.6-24.2,4.5l0,0c-10.4-1.4-19.7-6.9-26-15.3l0,0c-7.1-9.5-9.8-21.6-7.3-33.2
	L4,94c1.3-5.8,4.4-11.1,8.9-15l0,0l-1.4-5.4c-2.3-8.9-2-18.2,0.9-26.9l0.9-2.6c1.7-5.3,5.2-9.8,9.8-12.8l0,0c3.2-2.1,6.9-3.5,10.7-4
	L44,26l0.9-1.9c3.3-7.2,8.7-13.3,15.6-17.3l0,0C66.7,3,73.8,1,81.1,1h1.1c5.1,0,10.2,1.1,14.9,3.1l2.9,1.3c4,1.7,7.7,4,11.1,6.6
	l3.3,2.6c3.7,2.9,6.9,6.3,9.7,10.1L130,33l4.8,2.1c6.1,2.6,11.4,6.5,15.7,11.5l1.2,1.5c2.8,3.3,4.9,7,6.3,11.1l3.2,9.6
	c0.5,1.5,0.9,3,1.2,4.5l1.6,8.4c1.3,6.8,1.1,13.8-0.6,20.5l0,0c-1.6,6.4-4.9,12.3-9.6,17l0,0c-3.9,3.9-8.4,7-13.4,9.2l-2.6,1.2
	c-5.2,2.3-10.8,3.6-16.4,3.9l-2.7,0.1c-5.1,0.3-10.2-0.1-15.3-1.1L81,128z"/>
<polygon class="st0" points="61,197 103,197 97,126 126,91 94,100 83,47 73,77 52,74 70,100 "/>
<line class="st1" x1="0" y1="197" x2="166" y2="197"/>
</svg>
