<?xml version="1.0" encoding="utf-8"?>
<!-- Generator: Adobe Illustrator 24.2.3, SVG Export Plug-In . SVG Version: 6.00 Build 0)  -->
<svg version="1.1" id="Layer_1" xmlns="http://www.w3.org/2000/svg" xmlns:xlink="http://www.w3.org/1999/xlink" x="0px" y="0px"
	 viewBox="0 0 127.3 148.5" style="enable-background:new 0 0 127.3 148.5;" xml:space="preserve">
<style type="text/css">
	.st0{fill:#CCCCCC;stroke:#666666;stroke-miterlimit:10;}
	.st1{fill:none;stroke:#666666;stroke-width:2;stroke-miterlimit:10;}
	.st2{fill:#666666;}
	.st3{fill:none;stroke:#CCCCCC;stroke-miterlimit:10;}
</style>
<polygon class="st0" points="48.8,16.4 48.8,61.1 79.1,61.1 79.1,16.4 64,5.3 "/>
<polygon class="st0" points="6.5,87 6.5,148 121.5,148 121.5,87 64.5,44 "/>
<line class="st1" x1="1.5" y1="90" x2="64" y2="43.5"/>
<line class="st1" x1="125.8" y1="89.7" x2="63" y2="43.5"/>
<line class="st1" x1="46.5" y1="17.1" x2="64.6" y2="3.6"/>
<line class="st1" x1="81.5" y1="17.9" x2="63.5" y2="3.7"/>
<rect x="53" y="105.5" class="st2" width="22" height="42"/>
<rect x="20.5" y="107" class="st2" width="18" height="22"/>
<rect x="89.5" y="107" class="st2" width="18" height="22"/>
<path class="st2" d="M61.2,16.9l-2,1.7c-1.1,0.9-1.9,2.3-2.3,3.7L55.5,29h16L70,22.3c-0.3-1.5-1.1-2.8-2.3-3.7l-2-1.7
	C64.4,15.8,62.5,15.8,61.2,16.9z"/>
<circle class="st2" cx="63.6" cy="74.9" r="10.2"/>
<polyline class="st3" points="63.6,66.8 63.6,74.9 68.1,78.7 "/>
<line class="st1" x1="0" y1="148" x2="127.3" y2="148"/>
</svg>
