<?xml version="1.0" encoding="utf-8"?>
<!-- Generator: Adobe Illustrator 24.2.3, SVG Export Plug-In . SVG Version: 6.00 Build 0)  -->
<svg version="1.1" id="Layer_1" xmlns="http://www.w3.org/2000/svg" xmlns:xlink="http://www.w3.org/1999/xlink" x="0px" y="0px"
	 viewBox="0 0 61.4 52.4" style="enable-background:new 0 0 61.4 52.4;" xml:space="preserve">
<style type="text/css">
	.st0{fill:#CCCCCC;stroke:#231F20;stroke-miterlimit:10;}
</style>
<g>
	<polygon class="st0" points="29.9,34.5 29.9,34.5 29.9,34.5 	"/>
	<path class="st0" d="M23.3,35c-0.8-0.5-1.5-1.2-2-2.1l-0.9-1.6L2.7,47.1c-0.1,0.1-0.2,0.3-0.3,0.5L2,48.9l0.8,0.9l21.7-14L23.3,35z
		"/>
	<path class="st0" d="M3.1,50.3l1,0.9H5c0.5,0,1.1-0.2,1.5-0.5L24.8,36l-0.3-0.2L3.1,50.3z"/>
	<path class="st0" d="M58,7l-0.3-0.4c-1.7-2.1-4.6-3-7.2-2.1c-1.9,0.6-3.4,2-4.3,3.7L42,16c-0.3,0.5-0.6,0.9-1.1,1.3l-4.6,4.3
		c-1.1,1-1.9,2.3-2.3,3.7l-0.6,2.1C33.2,28,33,28.5,32.7,29l-2.8,5.5l0.2-0.1l4-1.7c1.3-0.5,2.7-0.8,4.2-0.8h3.2
		c2.3,0,4.6-0.6,6.6-1.8l2.6-1.5c4.2-2.5,7.2-6.6,8.5-11.3l0.5-2C60.5,12.4,59.8,9.4,58,7z M57.6,14.5c0,1-0.3,2.1-0.7,3l-2,3.9
		c-0.6,1.2-1.4,2.2-2.5,3.1l-2.3,1.9c-1.3,1.1-2.9,1.9-4.6,2.2l-2.7,0.5c-1.5,0.3-3-0.2-4.1-1.2c-0.6-0.6-0.9-1.4-0.9-2.2v-0.4
		c0.1-0.5,0.3-1,0.5-1.3c0.5-0.9,1.3-1.6,2.2-2.1l1.9-0.9c0.8-0.4,1.5-1,2-1.7l2.4-3.1c0.9-1.1,1.5-2.4,1.9-3.7l1.2-4
		c0.1-0.6,0.5-1.1,1-1.5c0.6-0.5,1.5-0.6,2.2-0.5l1,0.2c0.7,0.1,1.2,0.5,1.7,1.1l0.4,0.5c0.9,1.2,1.4,2.7,1.4,4.2V14.5z"/>
	<path class="st0" d="M32.8,27.6l1.7-5.3c0.2-0.6,0.6-1.2,1.1-1.6l5.1-4.2c0.3-0.2,0.5-0.5,0.7-0.8l2.8-4.6c0.4-0.7,0.7-1.5,0.7-2.4
		V8c0.1-2.6-1.2-5-3.4-6.3l-0.4-0.3c-1.9-1.2-4.2-1.3-6.2-0.2l-0.7,0.4c-3.2,1.7-5.5,4.6-6.4,8.1l-0.4,1.7c-0.2,1-0.3,2-0.3,3
		l0.1,3.2c0.1,2.1-0.4,4.3-1.2,6.2V24c-0.4,0.9-1,1.7-1.8,2.3l-1.8,1.4c-0.7,0.5-1.2,1.2-1.4,1.9l-0.5,1.6l-0.1,0l0.6,1.2
		c0.5,1,1.3,1.8,2.2,2.5l1.3,0.9l0.2-0.1l-0.2,0.2l0.2,0.2c1.2,0.1,2.5-0.2,3.6-0.8l1.5-0.7l2.7-6.3C32.7,28,32.8,27.8,32.8,27.6z
		 M30.5,14.4L30.4,14c-0.7-1.5-0.8-3.2-0.3-4.8c0.4-1.3,1.2-2.5,2.2-3.4l1-0.9c1.2-1,2.6-1.6,4.1-1.7h0.3c1.1-0.1,2.1,0.3,2.8,1.1
		c0.6,0.7,1,1.6,1,2.5v0.4c0,1.6-0.5,3.1-1.4,4.4l-1.9,2.7c-0.6,0.9-1.5,1.6-2.5,2.1c-0.7,0.3-1.5,0.4-2.3,0.3L33,16.5
		C31.9,16.2,31,15.4,30.5,14.4z"/>
</g>
</svg>
