<?xml version="1.0" encoding="utf-8"?>
<!-- Generator: Adobe Illustrator 24.2.3, SVG Export Plug-In . SVG Version: 6.00 Build 0)  -->
<svg version="1.1" id="Layer_1" xmlns="http://www.w3.org/2000/svg" xmlns:xlink="http://www.w3.org/1999/xlink" x="0px" y="0px"
	 viewBox="0 0 57.5 60.1" style="enable-background:new 0 0 57.5 60.1;" xml:space="preserve">
<style type="text/css">
	.st0{fill:#CCCCCC;stroke:#4d4d4d;stroke-miterlimit:10;}
</style>
<path class="st0" d="M2.7,47.3"/>
<path class="st0" d="M28.1,49.4L2.7,47.3l4-18.8c0.7-3.3,2.2-6.5,4.3-9.1l0.7-0.9c1.9-2.3,4.3-4,7.1-5l3-1.1
	C26,10.9,30.7,10.7,35,12l3,0.9c3.3,1,6.1,3,8.2,5.7l0.4,0.6c1.9,2.4,3.2,5.2,3.9,8.2L55,46.6L28.1,49.4z"/>
<path class="st0" d="M35,58c-4.1,0.6-8.2,0.6-12.3,0.2L1.4,56.1l-0.1-8.3c0-0.2,0.2-0.4,0.4-0.4l22.8,1.7c3,0.2,5.9,0.2,8.9-0.1
	L56,46.6c0.2,0,0.4,0.1,0.4,0.4l0.2,8.2L35,58z"/>
<polygon class="st0" points="18.2,11.7 29.3,11.1 18.8,7.3 28.7,10.3 20.9,4.9 28.8,9.6 23.7,2.1 29.2,9.3 27.4,0.5 29.2,8.1 
	30.3,2 29.7,8.1 35.4,3.6 29.7,9 35.4,7.5 30,10 36.9,10.1 29.8,10.8 "/>
</svg>
