<?xml version="1.0" encoding="utf-8"?>
<!-- Generator: Adobe Illustrator 24.2.3, SVG Export Plug-In . SVG Version: 6.00 Build 0)  -->
<svg version="1.1" id="Layer_1" xmlns="http://www.w3.org/2000/svg" xmlns:xlink="http://www.w3.org/1999/xlink" x="0px" y="0px"
	 viewBox="0 0 59.8 59.4" style="enable-background:new 0 0 59.8 59.4;" xml:space="preserve">
<style type="text/css">
	.st0{fill:#cccccc;stroke:#4d4d4d;stroke-miterlimit:10;}
</style>
<path id="Path_32" class="st0" d="M14.8,7.3l-1.1,0.9c-0.9,0.7-1.5,1.6-1.8,2.6L5.8,31.4l-0.1,0.3L1.2,52.7l8,3.1l4.4-10.4
	c0.3-0.7,0.4-1.4,0.4-2.2l-0.2-18.5l0.7,32.4l14.7,1c0.6,0,1.3,0,1.9,0l15.4-1l0.7-32.4v18.7c0,0.7,0.1,1.5,0.4,2.2l3.5,8.7l8-2.1
	L55.4,32c0-0.2-0.1-0.4-0.1-0.5l-5.7-20.5c-0.3-1.2-1.2-2.3-2.3-2.9l-3.2-1.7c-0.2-0.1-0.6-0.3-0.6-0.4l0.6-2c0-0.3-0.1-0.7-0.3-0.9
	l-1-1.2c-0.2-0.3-0.6-0.4-0.9-0.4L31.1,0.6c-0.5,0-1,0-1.5,0L19.1,1c-0.4,0-0.8,0.2-1.1,0.5l-0.9,0.9c-0.4,0.4-0.7,1.1-0.6,1.7
	L17,6.2c0,0.2-0.5,0.4-0.7,0.4l0,0C15.8,6.7,15.3,6.9,14.8,7.3z"/>
<path id="Path_33" class="st0" d="M17.2,4.1l1.6,2.1c0.2,0.3,0.5,0.5,0.8,0.6l5.2,2.3c0.9,0.4,1.6,1,2.1,1.8l3.4,5.1l4.8-5.7
	c0.7-0.8,1.6-1.5,2.6-1.9l4.5-1.9C42.6,6.3,42.9,6,43,5.7l0.5-1.4c0.2-0.5,0.1-1.2-0.2-1.6l-0.5-0.8c-0.2-0.3-0.6-0.5-0.9-0.5
	L30.5,0.5L19,1c-0.3,0-0.7,0.2-0.9,0.4l-0.9,1.3C16.9,3.2,16.9,3.7,17.2,4.1z"/>
<path id="Path_34" class="st0" d="M30.1,15.8L30.5,58V15.8L30.1,15.8z"/>
</svg>
