<?xml version="1.0" encoding="utf-8"?>
<!-- Generator: Adobe Illustrator 24.2.3, SVG Export Plug-In . SVG Version: 6.00 Build 0)  -->
<svg version="1.1" id="Layer_1" xmlns="http://www.w3.org/2000/svg" xmlns:xlink="http://www.w3.org/1999/xlink" x="0px" y="0px"
	 viewBox="0 0 32.6 80.8" style="enable-background:new 0 0 32.6 80.8;" xml:space="preserve">
<style type="text/css">
	.st0{fill:#CCCCCC;stroke:#4D4D4D;stroke-miterlimit:10;}
</style>
<g>
	<path class="st0" d="M21.5,5.6"/>
	<path class="st0" d="M17.8,19.7L5.3,19.5L2.9,32.4c-0.3,1.3-0.4,2.7-0.5,4.1L0.7,65.9c-0.1,2,0.1,4,0.6,5.9L3.5,80l8,0.7l2.7-7.5
		c0.5-1.4,0.8-2.9,1-4.4l2.1-23.7l0.9,23.3c0.1,1.6,0.4,3.1,0.8,4.6l2.2,7.2h7.5l2.1-5.5c0.9-2.2,1.3-4.6,1.2-7l-0.4-30.9
		c0-2-0.2-3.9-0.6-5.9l-2.5-11.8L17.8,19.7z"/>
	<polygon class="st0" points="10.4,2 13.2,1.2 17.2,8.3 22.3,0.9 24.1,1.9 18.7,10.6 18.7,19.1 16,19.1 15.9,10.8 	"/>
	<polygon class="st0" points="10,2.8 8.1,19.1 10.9,19.4 12.3,5.2 	"/>
	<polygon class="st0" points="24.5,2.8 26.6,18.9 23.7,19.2 22.3,5 	"/>
</g>
</svg>
