<?xml version="1.0" encoding="utf-8"?>
<!-- Generator: Adobe Illustrator 24.2.3, SVG Export Plug-In . SVG Version: 6.00 Build 0)  -->
<svg version="1.1" id="Layer_1" xmlns="http://www.w3.org/2000/svg" xmlns:xlink="http://www.w3.org/1999/xlink" x="0px" y="0px"
	 viewBox="0 0 59.3 57.8" style="enable-background:new 0 0 59.3 57.8;" xml:space="preserve">
<style type="text/css">
	.st0{fill:#CCCCCC;stroke:#4D4D4D;stroke-miterlimit:10;}
</style>
<g id="Group_99">
	<g id="Group_94">
		<path id="Path_35" class="st0" d="M1.9,46.3L1.9,46.3c0.5-0.5,1.1-0.9,1.8-1l5.7-1.5c5.3-1.4,9.4-5.5,10.9-10.7l0.4-1.4
			c0.4-1.4,0.5-2.8,0.3-4.2l-3.1-25L20.6,2c0.9-0.1,1.7-0.2,2.6-0.1l11.3,0.6V1.1l4.2-0.6c0.3-0.1,0.7-0.1,1-0.1h5.2
			c1.9,0,3.9,0.2,5.8,0.5l7.7,1.5l0.4,2.7c0.2,1.3,0.2,2.5,0,3.8l-3.4,20.3c-0.2,1.1-0.3,2.3-0.3,3.5v5c0,1.3,0.1,2.5,0.4,3.8
			l0.7,3.4c0.1,0.5,0.2,1,0.2,1.5V49c0,0.4,0,0.9-0.1,1.3l-0.6,4l-4,0.7L51,54.3L47,55v0.7l-7.4,1c-1.7,0.2-3.5,0.3-5.2,0.1
			l-17.3-1.7h-0.2c-1.6,0.4-3.3,0.5-5,0.2L1.4,53.5l-0.5-4.2C0.8,48.2,1.2,47.1,1.9,46.3z"/>
		<path id="Path_36" class="st0" d="M16.6,54.8v-5.9c0-0.2,0.1-0.8,0.2-1l0.5-0.7c0.5-0.7,1.1-1.2,1.9-1.5l7.9-3
			c5.2-1.9,8.7-6.9,8.8-12.5V27L35.2,5.1l-0.7-0.7v-2"/>
	</g>
	<path id="Path_37" class="st0" d="M1,49.2L11.6,51c0.9,0.1,1.7,0.1,2.6,0l2.3-0.3l18.6,1.7c1.1,0.1,2.2,0,3.2-0.1l17.6-3"/>
</g>
</svg>
